{
  "asset": {
    "generator": "Khronos glTF Blender I/O v1.6.16",
    "version": "2.0"
  },
  "scene": 0,
  "scenes": [
    {
      "name": "Scene",
      "nodes": [
        0
      ]
    }
  ],
  "nodes": [
    {
      "mesh": 0,
      "name": "sphere_gltf"
    }
  ],
  "materials": [
    {
      "doubleSided": true,
      "name": "rock_04",
      "normalTexture": {
        "index": 0
      },
      "pbrMetallicRoughness": {
        "baseColorTexture": {
          "index": 1
        },
        "metallicFactor": 0,
        "metallicRoughnessTexture": {
          "index": 2
        }
      }
    }
  ],
  "meshes": [
    {
      "name": "Sphere.001",
      "primitives": [
        {
          "attributes": {
            "POSITION": 0,
            "NORMAL": 1,
            "TEXCOORD_0": 2
          },
          "indices": 3,
          "material": 0
        }
      ]
    }
  ],
  "textures": [
    {
      "sampler": 0,
      "source": 0
    },
    {
      "sampler": 0,
      "source": 1
    },
    {
      "sampler": 0,
      "source": 2
    }
  ],
  "images": [
    {
      "mimeType": "image/jpeg",
      "name": "rock_04_nor_gl_4k",
      "uri": "textures/rock_04_nor_gl_4k.jpg"
    },
    {
      "mimeType": "image/jpeg",
      "name": "rock_04_diff_4k",
      "uri": "textures/rock_04_diff_4k.jpg"
    },
    {
      "mimeType": "image/jpeg",
      "name": "rock_04_rough_4k",
      "uri": "textures/rock_04_rough_4k.jpg"
    }
  ],
  "accessors": [
    {
      "bufferView": 0,
      "componentType": 5126,
      "count": 53912,
      "max": [
        0.7547179460525513,
        0.7672638297080994,
        0.7770188450813293
      ],
      "min": [
        -0.7547196745872498,
        -0.7701428532600403,
        -0.777021586894989
      ],
      "type": "VEC3"
    },
    {
      "bufferView": 1,
      "componentType": 5126,
      "count": 53912,
      "type": "VEC3"
    },
    {
      "bufferView": 2,
      "componentType": 5126,
      "count": 53912,
      "type": "VEC2"
    },
    {
      "bufferView": 3,
      "componentType": 5123,
      "count": 322170,
      "type": "SCALAR"
    }
  ],
  "bufferViews": [
    {
      "buffer": 0,
      "byteLength": 646944,
      "byteOffset": 0
    },
    {
      "buffer": 0,
      "byteLength": 646944,
      "byteOffset": 646944
    },
    {
      "buffer": 0,
      "byteLength": 431296,
      "byteOffset": 1293888
    },
    {
      "buffer": 0,
      "byteLength": 644340,
      "byteOffset": 1725184
    }
  ],
  "samplers": [
    {
      "magFilter": 9729,
      "minFilter": 9987
    }
  ],
  "buffers": [
    {
      "byteLength": 2369524,
      "uri": "rock_04.bin"
    }
  ]
}